<?xml version="1.0" encoding="UTF-8" standalone="no"?>
<!DOCTYPE svg PUBLIC "-//W3C//DTD SVG 1.1//EN" "http://www.w3.org/Graphics/SVG/1.1/DTD/svg11.dtd">
<svg width="100%" height="100%" viewBox="0 0 20 20" version="1.1" xmlns="http://www.w3.org/2000/svg" xmlns:xlink="http://www.w3.org/1999/xlink" xml:space="preserve" xmlns:serif="http://www.serif.com/" style="fill-rule:evenodd;clip-rule:evenodd;stroke-linejoin:round;stroke-miterlimit:2;">
    <g transform="matrix(1.24931,0,0,1.24931,-2.49312,-2.49312)">
        <path d="M3.5,16C3.088,16 2.734,15.853 2.441,15.559C2.147,15.265 2,14.912 2,14.499L2,5.494C2,5.081 2.147,4.729 2.441,4.438C2.734,4.146 3.088,4 3.5,4L16.5,4C16.913,4 17.266,4.147 17.559,4.441C17.853,4.735 18,5.088 18,5.501L18,14.506C18,14.919 17.853,15.271 17.559,15.563C17.266,15.854 16.913,16 16.5,16L3.5,16ZM10,11L3.5,7.271L3.5,14.5L16.5,14.5L16.5,7.271L10,11ZM10,9.229L16.5,5.5L3.5,5.5L10,9.229ZM3.5,14.5L3.5,5.5L3.5,14.5Z" style="fill:rgb(232,234,237);fill-rule:nonzero;"/>
    </g>
</svg>
